<mxfile host="65bd71144e">
    <diagram id="wLh5yHidyTnx1DjZIrnv" name="Page-1">
        <mxGraphModel dx="1344" dy="933" grid="1" gridSize="10" guides="1" tooltips="1" connect="1" arrows="1" fold="1" page="1" pageScale="1" pageWidth="850" pageHeight="1100" math="0" shadow="0">
            <root>
                <mxCell id="0"/>
                <mxCell id="1" parent="0"/>
                <mxCell id="2" value="&lt;font color=&quot;#000000&quot;&gt;Decoupled Approach&lt;/font&gt;" style="rounded=0;whiteSpace=wrap;html=1;fontFamily=Helvetica;fontSize=12;fontColor=#FFFFFF;fillColor=#99CCFF;" vertex="1" parent="1">
                    <mxGeometry x="80" y="80" width="680" height="40" as="geometry"/>
                </mxCell>
                <mxCell id="3" value="" style="strokeWidth=1;shadow=0;dashed=0;align=center;html=1;shape=mxgraph.mockup.containers.browserWindow;rSize=0;strokeColor=#666666;strokeColor2=#008cff;strokeColor3=#c4c4c4;mainText=,;recursiveResize=0;" vertex="1" parent="1">
                    <mxGeometry x="40" y="150" width="330" height="340" as="geometry"/>
                </mxCell>
                <mxCell id="4" value="Page 1" style="strokeWidth=1;shadow=0;dashed=0;align=center;html=1;shape=mxgraph.mockup.containers.anchor;fontSize=17;fontColor=#666666;align=left;" vertex="1" parent="3">
                    <mxGeometry x="60" y="12" width="110" height="26" as="geometry"/>
                </mxCell>
                <mxCell id="5" value="https://www.draw.io" style="strokeWidth=1;shadow=0;dashed=0;align=center;html=1;shape=mxgraph.mockup.containers.anchor;rSize=0;fontSize=17;fontColor=#666666;align=left;" vertex="1" parent="3">
                    <mxGeometry x="130" y="60" width="250" height="26" as="geometry"/>
                </mxCell>
                <mxCell id="6" value="&lt;font color=&quot;#000000&quot;&gt;Passport&lt;/font&gt;" style="rounded=0;whiteSpace=wrap;html=1;fontFamily=Helvetica;fontSize=12;fontColor=#FFFFFF;fillColor=#99CCFF;" vertex="1" parent="1">
                    <mxGeometry x="640" y="150" width="120" height="162" as="geometry"/>
                </mxCell>
                <mxCell id="7" value="&lt;font color=&quot;#000000&quot;&gt;GraphQL&lt;/font&gt;" style="rounded=0;whiteSpace=wrap;html=1;fontFamily=Helvetica;fontSize=12;fontColor=#FFFFFF;fillColor=#99CCFF;" vertex="1" parent="1">
                    <mxGeometry x="640" y="332" width="120" height="162" as="geometry"/>
                </mxCell>
                <mxCell id="8" value="" style="endArrow=classic;html=1;entryX=0;entryY=0.319;entryDx=0;entryDy=0;entryPerimeter=0;startArrow=none;" edge="1" parent="1" source="13" target="6">
                    <mxGeometry width="50" height="50" relative="1" as="geometry">
                        <mxPoint x="370" y="200" as="sourcePoint"/>
                        <mxPoint x="420" y="150" as="targetPoint"/>
                    </mxGeometry>
                </mxCell>
                <mxCell id="9" value="" style="endArrow=classic;html=1;entryX=1.009;entryY=0.378;entryDx=0;entryDy=0;entryPerimeter=0;startArrow=none;" edge="1" parent="1" source="16" target="3">
                    <mxGeometry width="50" height="50" relative="1" as="geometry">
                        <mxPoint x="640" y="280" as="sourcePoint"/>
                        <mxPoint x="910" y="281.6780000000001" as="targetPoint"/>
                    </mxGeometry>
                </mxCell>
                <mxCell id="10" value="" style="endArrow=classic;html=1;entryX=0;entryY=0.319;entryDx=0;entryDy=0;entryPerimeter=0;startArrow=none;" edge="1" parent="1" source="17">
                    <mxGeometry width="50" height="50" relative="1" as="geometry">
                        <mxPoint x="370" y="380" as="sourcePoint"/>
                        <mxPoint x="640" y="381.6780000000001" as="targetPoint"/>
                    </mxGeometry>
                </mxCell>
                <mxCell id="11" value="" style="endArrow=classic;html=1;entryX=1.009;entryY=0.378;entryDx=0;entryDy=0;entryPerimeter=0;startArrow=none;" edge="1" parent="1" source="19">
                    <mxGeometry width="50" height="50" relative="1" as="geometry">
                        <mxPoint x="637.03" y="471.48" as="sourcePoint"/>
                        <mxPoint x="370" y="470" as="targetPoint"/>
                    </mxGeometry>
                </mxCell>
                <mxCell id="12" value="" style="endArrow=none;html=1;entryX=0;entryY=0.319;entryDx=0;entryDy=0;entryPerimeter=0;" edge="1" parent="1" target="13">
                    <mxGeometry width="50" height="50" relative="1" as="geometry">
                        <mxPoint x="370" y="200" as="sourcePoint"/>
                        <mxPoint x="640" y="201.6780000000001" as="targetPoint"/>
                    </mxGeometry>
                </mxCell>
                <mxCell id="13" value="A User" style="text;html=1;strokeColor=none;fillColor=none;align=center;verticalAlign=middle;whiteSpace=wrap;rounded=0;" vertex="1" parent="1">
                    <mxGeometry x="480" y="180" width="60" height="30" as="geometry"/>
                </mxCell>
                <mxCell id="14" value="Authentication&lt;br&gt;Request" style="text;html=1;strokeColor=none;fillColor=none;align=center;verticalAlign=middle;whiteSpace=wrap;rounded=0;" vertex="1" parent="1">
                    <mxGeometry x="445" y="210" width="130" height="30" as="geometry"/>
                </mxCell>
                <mxCell id="15" value="" style="endArrow=none;html=1;entryX=1.009;entryY=0.378;entryDx=0;entryDy=0;entryPerimeter=0;" edge="1" parent="1" target="16">
                    <mxGeometry width="50" height="50" relative="1" as="geometry">
                        <mxPoint x="640" y="280" as="sourcePoint"/>
                        <mxPoint x="372.97" y="278.52" as="targetPoint"/>
                    </mxGeometry>
                </mxCell>
                <mxCell id="16" value="Identified User" style="text;html=1;strokeColor=none;fillColor=none;align=center;verticalAlign=middle;whiteSpace=wrap;rounded=0;" vertex="1" parent="1">
                    <mxGeometry x="452.5" y="267" width="115" height="30" as="geometry"/>
                </mxCell>
                <mxCell id="18" value="" style="endArrow=none;html=1;entryX=0;entryY=0.319;entryDx=0;entryDy=0;entryPerimeter=0;" edge="1" parent="1" target="17">
                    <mxGeometry width="50" height="50" relative="1" as="geometry">
                        <mxPoint x="370" y="380" as="sourcePoint"/>
                        <mxPoint x="640" y="381.6780000000001" as="targetPoint"/>
                    </mxGeometry>
                </mxCell>
                <mxCell id="17" value="Identified User" style="text;html=1;strokeColor=none;fillColor=none;align=center;verticalAlign=middle;whiteSpace=wrap;rounded=0;" vertex="1" parent="1">
                    <mxGeometry x="452.5" y="370" width="115" height="30" as="geometry"/>
                </mxCell>
                <mxCell id="20" value="" style="endArrow=none;html=1;entryX=1.009;entryY=0.378;entryDx=0;entryDy=0;entryPerimeter=0;" edge="1" parent="1" target="19">
                    <mxGeometry width="50" height="50" relative="1" as="geometry">
                        <mxPoint x="637.03" y="471.48" as="sourcePoint"/>
                        <mxPoint x="370" y="470" as="targetPoint"/>
                    </mxGeometry>
                </mxCell>
                <mxCell id="19" value="Response" style="text;html=1;strokeColor=none;fillColor=none;align=center;verticalAlign=middle;whiteSpace=wrap;rounded=0;" vertex="1" parent="1">
                    <mxGeometry x="460" y="460" width="115" height="30" as="geometry"/>
                </mxCell>
                <mxCell id="21" value="&lt;font color=&quot;#000000&quot;&gt;Coupled Approach&lt;/font&gt;" style="rounded=0;whiteSpace=wrap;html=1;fontFamily=Helvetica;fontSize=12;fontColor=#FFFFFF;fillColor=#99CCFF;" vertex="1" parent="1">
                    <mxGeometry x="960" y="80" width="680" height="40" as="geometry"/>
                </mxCell>
                <mxCell id="22" value="" style="strokeWidth=1;shadow=0;dashed=0;align=center;html=1;shape=mxgraph.mockup.containers.browserWindow;rSize=0;strokeColor=#666666;strokeColor2=#008cff;strokeColor3=#c4c4c4;mainText=,;recursiveResize=0;" vertex="1" parent="1">
                    <mxGeometry x="920" y="150" width="330" height="340" as="geometry"/>
                </mxCell>
                <mxCell id="23" value="Page 1" style="strokeWidth=1;shadow=0;dashed=0;align=center;html=1;shape=mxgraph.mockup.containers.anchor;fontSize=17;fontColor=#666666;align=left;" vertex="1" parent="22">
                    <mxGeometry x="60" y="12" width="110" height="26" as="geometry"/>
                </mxCell>
                <mxCell id="24" value="https://www.draw.io" style="strokeWidth=1;shadow=0;dashed=0;align=center;html=1;shape=mxgraph.mockup.containers.anchor;rSize=0;fontSize=17;fontColor=#666666;align=left;" vertex="1" parent="22">
                    <mxGeometry x="130" y="60" width="250" height="26" as="geometry"/>
                </mxCell>
                <mxCell id="25" value="&lt;font color=&quot;#000000&quot;&gt;GraphQL&lt;/font&gt;" style="rounded=0;whiteSpace=wrap;html=1;fontFamily=Helvetica;fontSize=12;fontColor=#FFFFFF;fillColor=#99CCFF;" vertex="1" parent="1">
                    <mxGeometry x="1520" y="150" width="120" height="162" as="geometry"/>
                </mxCell>
                <mxCell id="26" value="&lt;font color=&quot;#000000&quot;&gt;GraphQL&lt;/font&gt;" style="rounded=0;whiteSpace=wrap;html=1;fontFamily=Helvetica;fontSize=12;fontColor=#FFFFFF;fillColor=#99CCFF;" vertex="1" parent="1">
                    <mxGeometry x="1520" y="332" width="120" height="162" as="geometry"/>
                </mxCell>
                <mxCell id="27" value="" style="endArrow=classic;html=1;entryX=0;entryY=0.319;entryDx=0;entryDy=0;entryPerimeter=0;startArrow=none;" edge="1" parent="1" source="32" target="25">
                    <mxGeometry width="50" height="50" relative="1" as="geometry">
                        <mxPoint x="1250" y="200" as="sourcePoint"/>
                        <mxPoint x="1300" y="150" as="targetPoint"/>
                    </mxGeometry>
                </mxCell>
                <mxCell id="28" value="" style="endArrow=classic;html=1;entryX=1.009;entryY=0.378;entryDx=0;entryDy=0;entryPerimeter=0;startArrow=none;" edge="1" parent="1" source="35" target="22">
                    <mxGeometry width="50" height="50" relative="1" as="geometry">
                        <mxPoint x="1520" y="280" as="sourcePoint"/>
                        <mxPoint x="1790" y="281.6780000000001" as="targetPoint"/>
                    </mxGeometry>
                </mxCell>
                <mxCell id="29" value="" style="endArrow=classic;html=1;entryX=0;entryY=0.319;entryDx=0;entryDy=0;entryPerimeter=0;startArrow=none;" edge="1" parent="1" source="37">
                    <mxGeometry width="50" height="50" relative="1" as="geometry">
                        <mxPoint x="1250" y="380" as="sourcePoint"/>
                        <mxPoint x="1520" y="381.6780000000001" as="targetPoint"/>
                    </mxGeometry>
                </mxCell>
                <mxCell id="30" value="" style="endArrow=classic;html=1;entryX=1.009;entryY=0.378;entryDx=0;entryDy=0;entryPerimeter=0;startArrow=none;" edge="1" parent="1" source="39">
                    <mxGeometry width="50" height="50" relative="1" as="geometry">
                        <mxPoint x="1517.03" y="471.48" as="sourcePoint"/>
                        <mxPoint x="1250" y="470" as="targetPoint"/>
                    </mxGeometry>
                </mxCell>
                <mxCell id="31" value="" style="endArrow=none;html=1;entryX=0;entryY=0.319;entryDx=0;entryDy=0;entryPerimeter=0;" edge="1" parent="1" target="32">
                    <mxGeometry width="50" height="50" relative="1" as="geometry">
                        <mxPoint x="1250" y="200" as="sourcePoint"/>
                        <mxPoint x="1520" y="201.6780000000001" as="targetPoint"/>
                    </mxGeometry>
                </mxCell>
                <mxCell id="32" value="A User" style="text;html=1;strokeColor=none;fillColor=none;align=center;verticalAlign=middle;whiteSpace=wrap;rounded=0;" vertex="1" parent="1">
                    <mxGeometry x="1360" y="180" width="60" height="30" as="geometry"/>
                </mxCell>
                <mxCell id="33" value="Authentication&lt;br&gt;Request" style="text;html=1;strokeColor=none;fillColor=none;align=center;verticalAlign=middle;whiteSpace=wrap;rounded=0;" vertex="1" parent="1">
                    <mxGeometry x="1325" y="210" width="130" height="30" as="geometry"/>
                </mxCell>
                <mxCell id="34" value="" style="endArrow=none;html=1;entryX=1.009;entryY=0.378;entryDx=0;entryDy=0;entryPerimeter=0;" edge="1" parent="1" target="35">
                    <mxGeometry width="50" height="50" relative="1" as="geometry">
                        <mxPoint x="1520" y="280" as="sourcePoint"/>
                        <mxPoint x="1252.97" y="278.52" as="targetPoint"/>
                    </mxGeometry>
                </mxCell>
                <mxCell id="35" value="Identified User" style="text;html=1;strokeColor=none;fillColor=none;align=center;verticalAlign=middle;whiteSpace=wrap;rounded=0;" vertex="1" parent="1">
                    <mxGeometry x="1332.5" y="267" width="115" height="30" as="geometry"/>
                </mxCell>
                <mxCell id="36" value="" style="endArrow=none;html=1;entryX=0;entryY=0.319;entryDx=0;entryDy=0;entryPerimeter=0;" edge="1" parent="1" target="37">
                    <mxGeometry width="50" height="50" relative="1" as="geometry">
                        <mxPoint x="1250" y="380" as="sourcePoint"/>
                        <mxPoint x="1520" y="381.6780000000001" as="targetPoint"/>
                    </mxGeometry>
                </mxCell>
                <mxCell id="37" value="Identified User" style="text;html=1;strokeColor=none;fillColor=none;align=center;verticalAlign=middle;whiteSpace=wrap;rounded=0;" vertex="1" parent="1">
                    <mxGeometry x="1332.5" y="370" width="115" height="30" as="geometry"/>
                </mxCell>
                <mxCell id="38" value="" style="endArrow=none;html=1;entryX=1.009;entryY=0.378;entryDx=0;entryDy=0;entryPerimeter=0;" edge="1" parent="1" target="39">
                    <mxGeometry width="50" height="50" relative="1" as="geometry">
                        <mxPoint x="1517.03" y="471.48" as="sourcePoint"/>
                        <mxPoint x="1250" y="470" as="targetPoint"/>
                    </mxGeometry>
                </mxCell>
                <mxCell id="39" value="Response" style="text;html=1;strokeColor=none;fillColor=none;align=center;verticalAlign=middle;whiteSpace=wrap;rounded=0;" vertex="1" parent="1">
                    <mxGeometry x="1340" y="460" width="115" height="30" as="geometry"/>
                </mxCell>
                <mxCell id="40" value="&lt;font color=&quot;#000000&quot;&gt;GraphQL&lt;/font&gt;" style="rounded=0;whiteSpace=wrap;html=1;fontFamily=Helvetica;fontSize=12;fontColor=#FFFFFF;fillColor=#99CCFF;" vertex="1" parent="1">
                    <mxGeometry x="1820" y="144" width="120" height="162" as="geometry"/>
                </mxCell>
                <mxCell id="41" value="" style="endArrow=classic;html=1;entryX=0;entryY=0.25;entryDx=0;entryDy=0;startArrow=none;" edge="1" parent="1" source="43" target="40">
                    <mxGeometry width="50" height="50" relative="1" as="geometry">
                        <mxPoint x="1640" y="192.43107692307683" as="sourcePoint"/>
                        <mxPoint x="1740" y="197.5680000000001" as="targetPoint"/>
                    </mxGeometry>
                </mxCell>
                <mxCell id="42" value="" style="endArrow=none;html=1;entryX=0;entryY=0.25;entryDx=0;entryDy=0;startArrow=none;" edge="1" parent="1" target="43">
                    <mxGeometry width="50" height="50" relative="1" as="geometry">
                        <mxPoint x="1640" y="192.43107692307694" as="sourcePoint"/>
                        <mxPoint x="1790" y="190.5" as="targetPoint"/>
                    </mxGeometry>
                </mxCell>
                <mxCell id="43" value="Passport, Can you take care of this for me?" style="text;html=1;strokeColor=none;fillColor=none;align=center;verticalAlign=middle;whiteSpace=wrap;rounded=0;" vertex="1" parent="1">
                    <mxGeometry x="1680" y="180" width="110" height="30" as="geometry"/>
                </mxCell>
                <mxCell id="44" value="" style="endArrow=classic;html=1;startArrow=none;" edge="1" parent="1" source="46">
                    <mxGeometry width="50" height="50" relative="1" as="geometry">
                        <mxPoint x="1868.52" y="263" as="sourcePoint"/>
                        <mxPoint x="1640" y="265" as="targetPoint"/>
                    </mxGeometry>
                </mxCell>
                <mxCell id="45" value="" style="endArrow=none;html=1;entryX=1.009;entryY=0.378;entryDx=0;entryDy=0;entryPerimeter=0;" edge="1" parent="1" target="46">
                    <mxGeometry width="50" height="50" relative="1" as="geometry">
                        <mxPoint x="1820" y="265" as="sourcePoint"/>
                        <mxPoint x="1601.49" y="261.52" as="targetPoint"/>
                    </mxGeometry>
                </mxCell>
                <mxCell id="46" value="Identified User" style="text;html=1;strokeColor=none;fillColor=none;align=center;verticalAlign=middle;whiteSpace=wrap;rounded=0;" vertex="1" parent="1">
                    <mxGeometry x="1681.02" y="250" width="115" height="30" as="geometry"/>
                </mxCell>
                <mxCell id="47" value="&lt;font color=&quot;#000000&quot;&gt;Part of React app that &lt;b&gt;doesn't&lt;/b&gt; use GraphQL&lt;/font&gt;" style="rounded=0;whiteSpace=wrap;html=1;fontFamily=Helvetica;fontSize=12;fontColor=#FFFFFF;fillColor=#99CCFF;" vertex="1" parent="1">
                    <mxGeometry x="40" y="600" width="320" height="200" as="geometry"/>
                </mxCell>
                <mxCell id="48" value="&lt;font color=&quot;#000000&quot;&gt;Passport&lt;/font&gt;" style="rounded=0;whiteSpace=wrap;html=1;fontFamily=Helvetica;fontSize=12;fontColor=#FFFFFF;fillColor=#99CCFF;" vertex="1" parent="1">
                    <mxGeometry x="640" y="600" width="120" height="200" as="geometry"/>
                </mxCell>
                <mxCell id="49" value="" style="endArrow=classic;html=1;entryX=-0.005;entryY=0.317;entryDx=0;entryDy=0;entryPerimeter=0;startArrow=none;" edge="1" parent="1" source="51" target="48">
                    <mxGeometry width="50" height="50" relative="1" as="geometry">
                        <mxPoint x="360" y="660" as="sourcePoint"/>
                        <mxPoint x="630" y="661.6780000000001" as="targetPoint"/>
                    </mxGeometry>
                </mxCell>
                <mxCell id="50" value="" style="endArrow=none;html=1;entryX=0;entryY=0.319;entryDx=0;entryDy=0;entryPerimeter=0;" edge="1" parent="1" target="51">
                    <mxGeometry width="50" height="50" relative="1" as="geometry">
                        <mxPoint x="360" y="660" as="sourcePoint"/>
                        <mxPoint x="630" y="661.6780000000001" as="targetPoint"/>
                    </mxGeometry>
                </mxCell>
                <mxCell id="51" value="A User" style="text;html=1;strokeColor=none;fillColor=none;align=center;verticalAlign=middle;whiteSpace=wrap;rounded=0;" vertex="1" parent="1">
                    <mxGeometry x="470" y="640" width="60" height="30" as="geometry"/>
                </mxCell>
                <mxCell id="52" value="Authentication&lt;br&gt;Request" style="text;html=1;strokeColor=none;fillColor=none;align=center;verticalAlign=middle;whiteSpace=wrap;rounded=0;" vertex="1" parent="1">
                    <mxGeometry x="435" y="670" width="130" height="30" as="geometry"/>
                </mxCell>
                <mxCell id="53" value="" style="endArrow=classic;html=1;entryX=1;entryY=0.708;entryDx=0;entryDy=0;entryPerimeter=0;startArrow=none;" edge="1" parent="1" source="55" target="47">
                    <mxGeometry width="50" height="50" relative="1" as="geometry">
                        <mxPoint x="640" y="743" as="sourcePoint"/>
                        <mxPoint x="372.97" y="741.52" as="targetPoint"/>
                    </mxGeometry>
                </mxCell>
                <mxCell id="54" value="" style="endArrow=none;html=1;entryX=1.009;entryY=0.378;entryDx=0;entryDy=0;entryPerimeter=0;" edge="1" parent="1" target="55">
                    <mxGeometry width="50" height="50" relative="1" as="geometry">
                        <mxPoint x="640" y="743" as="sourcePoint"/>
                        <mxPoint x="372.97" y="741.52" as="targetPoint"/>
                    </mxGeometry>
                </mxCell>
                <mxCell id="55" value="Identified User" style="text;html=1;strokeColor=none;fillColor=none;align=center;verticalAlign=middle;whiteSpace=wrap;rounded=0;" vertex="1" parent="1">
                    <mxGeometry x="452.5" y="730" width="115" height="30" as="geometry"/>
                </mxCell>
                <mxCell id="56" value="&lt;font color=&quot;#000000&quot;&gt;Part of React app that &lt;b&gt;does&lt;/b&gt; use GraphQL&lt;/font&gt;" style="rounded=0;whiteSpace=wrap;html=1;fontFamily=Helvetica;fontSize=12;fontColor=#FFFFFF;fillColor=#99CCFF;" vertex="1" parent="1">
                    <mxGeometry x="40" y="840" width="320" height="200" as="geometry"/>
                </mxCell>
                <mxCell id="57" value="&lt;font color=&quot;#000000&quot;&gt;GraphQL&lt;/font&gt;" style="rounded=0;whiteSpace=wrap;html=1;fontFamily=Helvetica;fontSize=12;fontColor=#FFFFFF;fillColor=#99CCFF;" vertex="1" parent="1">
                    <mxGeometry x="640" y="840" width="120" height="200" as="geometry"/>
                </mxCell>
                <mxCell id="58" value="" style="endArrow=classic;html=1;entryX=-0.005;entryY=0.317;entryDx=0;entryDy=0;entryPerimeter=0;startArrow=none;" edge="1" parent="1" source="60" target="57">
                    <mxGeometry width="50" height="50" relative="1" as="geometry">
                        <mxPoint x="360" y="900" as="sourcePoint"/>
                        <mxPoint x="630" y="901.6780000000001" as="targetPoint"/>
                    </mxGeometry>
                </mxCell>
                <mxCell id="59" value="" style="endArrow=none;html=1;entryX=0;entryY=0.319;entryDx=0;entryDy=0;entryPerimeter=0;" edge="1" parent="1" target="60">
                    <mxGeometry width="50" height="50" relative="1" as="geometry">
                        <mxPoint x="360" y="900" as="sourcePoint"/>
                        <mxPoint x="630" y="901.6780000000001" as="targetPoint"/>
                    </mxGeometry>
                </mxCell>
                <mxCell id="60" value="Identified User" style="text;html=1;strokeColor=none;fillColor=none;align=center;verticalAlign=middle;whiteSpace=wrap;rounded=0;" vertex="1" parent="1">
                    <mxGeometry x="470" y="880" width="60" height="30" as="geometry"/>
                </mxCell>
                <mxCell id="62" value="" style="endArrow=classic;html=1;entryX=1;entryY=0.708;entryDx=0;entryDy=0;entryPerimeter=0;startArrow=none;" edge="1" parent="1" source="64" target="56">
                    <mxGeometry width="50" height="50" relative="1" as="geometry">
                        <mxPoint x="640" y="983" as="sourcePoint"/>
                        <mxPoint x="372.97" y="981.52" as="targetPoint"/>
                    </mxGeometry>
                </mxCell>
                <mxCell id="63" value="" style="endArrow=none;html=1;entryX=1.009;entryY=0.378;entryDx=0;entryDy=0;entryPerimeter=0;" edge="1" parent="1" target="64">
                    <mxGeometry width="50" height="50" relative="1" as="geometry">
                        <mxPoint x="640" y="983" as="sourcePoint"/>
                        <mxPoint x="372.97" y="981.52" as="targetPoint"/>
                    </mxGeometry>
                </mxCell>
                <mxCell id="64" value="Response" style="text;html=1;strokeColor=none;fillColor=none;align=center;verticalAlign=middle;whiteSpace=wrap;rounded=0;" vertex="1" parent="1">
                    <mxGeometry x="452.5" y="970" width="115" height="30" as="geometry"/>
                </mxCell>
            </root>
        </mxGraphModel>
    </diagram>
</mxfile>